%
M48
M72
T01C0.0276
T02C0.0320
T03C0.0400
T04C0.1260
%
T01
X6866Y2850
X6866Y3850
X8834Y3850
X8834Y2850
T02
X7850Y4850
X6850Y5350
X5850Y5350
X4850Y5350
X3850Y5350
X3850Y8350
X4850Y8350
X5850Y8350
X6850Y8350
X7850Y8850
X7350Y10850
X3350Y10850
T03
X2350Y9850
X2350Y8850
X2350Y7850
X2350Y6850
X2350Y5850
X2350Y4850
X2350Y3850
X2350Y2850
T04
X1350Y1350
X8850Y1350
X8850Y12350
X1350Y12350
M30
