G75*
%MOIN*%
%OFA0B0*%
%FSLAX24Y24*%
%IPPOS*%
%LPD*%
%AMOC8*
5,1,8,0,0,1.08239X$1,22.5*
%
%ADD10C,0.0520*%
%ADD11OC8,0.0660*%
%ADD12C,0.0650*%
%ADD13C,0.0740*%
%ADD14R,0.0630X0.0709*%
%ADD15C,0.0500*%
D10*
X003850Y005090D02*
X003850Y005610D01*
X004850Y005610D02*
X004850Y005090D01*
X005850Y005090D02*
X005850Y005610D01*
X006850Y005610D02*
X006850Y005090D01*
X006850Y008090D02*
X006850Y008610D01*
X005850Y008610D02*
X005850Y008090D01*
X004850Y008090D02*
X004850Y008610D01*
X003850Y008610D02*
X003850Y008090D01*
D11*
X003350Y010850D03*
X007350Y010850D03*
X007850Y008850D03*
X007850Y004850D03*
D12*
X006866Y003850D03*
X006866Y002850D03*
X008834Y002850D03*
X008834Y003850D03*
D13*
X002350Y003850D03*
X002350Y004850D03*
X002350Y005850D03*
X002350Y006850D03*
X002350Y007850D03*
X002350Y008850D03*
X002350Y009850D03*
X002350Y002850D03*
D14*
X004799Y009350D03*
X005901Y009350D03*
D15*
X001000Y011119D02*
X001000Y002581D01*
X001181Y002630D01*
X001353Y002630D01*
X001330Y002716D01*
X001330Y002984D01*
X001400Y003244D01*
X001534Y003476D01*
X001669Y003612D01*
X001667Y003618D01*
X001642Y003709D01*
X001630Y003803D01*
X001630Y003850D01*
X002141Y003850D01*
X001630Y003850D01*
X001630Y003897D01*
X001642Y003991D01*
X001667Y004082D01*
X001669Y004088D01*
X001534Y004224D01*
X001400Y004456D01*
X001330Y004716D01*
X001330Y004984D01*
X001400Y005244D01*
X001534Y005476D01*
X001669Y005612D01*
X001667Y005618D01*
X001642Y005709D01*
X001630Y005803D01*
X001630Y005850D01*
X002141Y005850D01*
X001630Y005850D01*
X001630Y005897D01*
X001642Y005991D01*
X001667Y006082D01*
X001703Y006169D01*
X001750Y006251D01*
X001808Y006326D01*
X001832Y006350D01*
X001808Y006374D01*
X001750Y006449D01*
X001703Y006531D01*
X001667Y006618D01*
X001642Y006709D01*
X001630Y006803D01*
X001630Y006850D01*
X002141Y006850D01*
X002141Y006850D01*
X001630Y006850D01*
X001630Y006897D01*
X001642Y006991D01*
X001667Y007082D01*
X001669Y007088D01*
X001534Y007224D01*
X001400Y007456D01*
X001330Y007716D01*
X001330Y007984D01*
X001400Y008244D01*
X001450Y008331D01*
X001450Y008369D01*
X001400Y008456D01*
X001330Y008716D01*
X001330Y008984D01*
X001400Y009244D01*
X001461Y009350D01*
X001400Y009456D01*
X001330Y009716D01*
X001330Y009984D01*
X001400Y010244D01*
X001534Y010476D01*
X001724Y010666D01*
X001956Y010800D01*
X002216Y010870D01*
X002484Y010870D01*
X002670Y010820D01*
X002670Y010850D01*
X003350Y010850D01*
X003350Y010850D01*
X003350Y011530D01*
X003632Y011530D01*
X004030Y011132D01*
X004030Y010850D01*
X003350Y010850D01*
X003350Y010850D01*
X003350Y010850D01*
X003350Y011530D01*
X003068Y011530D01*
X002670Y011132D01*
X002670Y010850D01*
X003350Y010850D01*
X004030Y010850D01*
X004030Y010568D01*
X003717Y010256D01*
X003723Y010250D01*
X004110Y010250D01*
X004116Y010255D01*
X004355Y010354D01*
X005243Y010354D01*
X005350Y010310D01*
X005457Y010354D01*
X005582Y010354D01*
X005587Y010360D01*
X005840Y010613D01*
X006171Y010750D01*
X006370Y010750D01*
X006370Y011256D01*
X006944Y011830D01*
X007672Y011830D01*
X007657Y011856D01*
X007570Y012181D01*
X007570Y012519D01*
X007618Y012696D01*
X002582Y012696D01*
X002630Y012519D01*
X002630Y012181D01*
X002543Y011856D01*
X002374Y011564D01*
X002136Y011326D01*
X001844Y011157D01*
X001519Y011070D01*
X001181Y011070D01*
X001000Y011119D01*
X001000Y010811D02*
X001996Y010811D01*
X002108Y011310D02*
X002848Y011310D01*
X002515Y011808D02*
X006922Y011808D01*
X006424Y011310D02*
X003852Y011310D01*
X004030Y010811D02*
X006370Y010811D01*
X006350Y009850D02*
X006850Y009850D01*
X007350Y010350D01*
X007350Y010850D01*
X008250Y010364D02*
X008250Y010171D01*
X008113Y009840D01*
X008103Y009830D01*
X008256Y009830D01*
X008830Y009256D01*
X008830Y008444D01*
X008256Y007870D01*
X008143Y007870D01*
X007860Y007587D01*
X007529Y007450D01*
X007497Y007450D01*
X007365Y007319D01*
X007031Y007180D01*
X006669Y007180D01*
X006350Y007312D01*
X006031Y007180D01*
X005669Y007180D01*
X005350Y007312D01*
X005031Y007180D01*
X004669Y007180D01*
X004335Y007319D01*
X004113Y007540D01*
X004084Y007525D01*
X003993Y007495D01*
X003898Y007480D01*
X003850Y007480D01*
X003850Y008350D01*
X003850Y008350D01*
X003850Y007480D01*
X003802Y007480D01*
X003707Y007495D01*
X003616Y007525D01*
X003530Y007568D01*
X003453Y007625D01*
X003385Y007693D01*
X003369Y007714D01*
X003300Y007456D01*
X003166Y007224D01*
X003031Y007088D01*
X003033Y007082D01*
X003058Y006991D01*
X003070Y006897D01*
X003070Y006850D01*
X002559Y006850D01*
X002559Y006850D01*
X003070Y006850D01*
X003070Y006803D01*
X003058Y006709D01*
X003033Y006618D01*
X002997Y006531D01*
X002950Y006449D01*
X002892Y006374D01*
X002868Y006350D01*
X002892Y006326D01*
X002950Y006251D01*
X002997Y006169D01*
X003033Y006082D01*
X003058Y005991D01*
X003070Y005897D01*
X003070Y005850D01*
X002559Y005850D01*
X002559Y005850D01*
X003070Y005850D01*
X003070Y005803D01*
X003061Y005737D01*
X003241Y005662D01*
X003255Y005753D01*
X003285Y005844D01*
X003328Y005930D01*
X003385Y006007D01*
X003453Y006075D01*
X003530Y006132D01*
X003616Y006175D01*
X003707Y006205D01*
X003802Y006220D01*
X003850Y006220D01*
X003850Y005350D01*
X003850Y005350D01*
X003850Y006220D01*
X003898Y006220D01*
X003993Y006205D01*
X004084Y006175D01*
X004113Y006160D01*
X004335Y006381D01*
X004669Y006520D01*
X005031Y006520D01*
X005350Y006388D01*
X005669Y006520D01*
X006031Y006520D01*
X006350Y006388D01*
X006669Y006520D01*
X007031Y006520D01*
X007365Y006381D01*
X007497Y006250D01*
X007529Y006250D01*
X007860Y006113D01*
X008143Y005830D01*
X008256Y005830D01*
X008830Y005256D01*
X008830Y004525D01*
X008834Y004525D01*
X008834Y003850D01*
X008159Y003850D01*
X008159Y003806D01*
X008171Y003718D01*
X008194Y003633D01*
X008228Y003551D01*
X008272Y003474D01*
X008326Y003404D01*
X008380Y003350D01*
X008326Y003296D01*
X008272Y003226D01*
X008228Y003149D01*
X008194Y003067D01*
X008171Y002982D01*
X008159Y002894D01*
X008159Y002850D01*
X008159Y002806D01*
X008171Y002718D01*
X008194Y002633D01*
X008228Y002551D01*
X008263Y002489D01*
X008064Y002374D01*
X007826Y002136D01*
X007657Y001844D01*
X007570Y001519D01*
X007570Y001181D01*
X007619Y001000D01*
X002581Y001000D01*
X002630Y001181D01*
X002630Y001519D01*
X002543Y001844D01*
X002542Y001845D01*
X002744Y001900D01*
X002831Y001950D01*
X003529Y001950D01*
X003860Y002087D01*
X004113Y002340D01*
X004113Y002340D01*
X004223Y002450D01*
X005477Y002450D01*
X005840Y002087D01*
X006171Y001950D01*
X006491Y001950D01*
X006672Y001875D01*
X007060Y001875D01*
X007418Y002023D01*
X007692Y002298D01*
X007841Y002656D01*
X007841Y003044D01*
X007714Y003350D01*
X007841Y003656D01*
X007841Y003870D01*
X008159Y003870D01*
X008159Y003850D01*
X008834Y003850D01*
X008834Y003850D01*
X008834Y003850D01*
X008834Y002850D01*
X008159Y002850D01*
X008834Y002850D01*
X008834Y002850D01*
X008834Y002850D01*
X008834Y003175D01*
X008834Y003850D01*
X008834Y003850D01*
X008834Y004525D01*
X008878Y004525D01*
X008966Y004513D01*
X009052Y004491D01*
X009070Y004483D01*
X009070Y011084D01*
X009019Y011070D01*
X008681Y011070D01*
X008356Y011157D01*
X008330Y011172D01*
X008330Y010444D01*
X008250Y010364D01*
X008250Y010313D02*
X009070Y010313D01*
X009070Y010811D02*
X008330Y010811D01*
X008272Y009814D02*
X009070Y009814D01*
X009070Y009316D02*
X008770Y009316D01*
X008830Y008817D02*
X009070Y008817D01*
X009070Y008319D02*
X008704Y008319D01*
X009070Y007820D02*
X008093Y007820D01*
X007368Y007322D02*
X009070Y007322D01*
X009070Y006823D02*
X003070Y006823D01*
X002893Y006325D02*
X004278Y006325D01*
X003850Y005826D02*
X003850Y005826D01*
X003279Y005826D02*
X003070Y005826D01*
X002350Y005870D02*
X002350Y006830D01*
X002350Y006830D01*
X002350Y005870D01*
X002350Y005870D01*
X002141Y005850D02*
X002141Y005850D01*
X002350Y006325D02*
X002350Y006325D01*
X002350Y006823D02*
X002350Y006823D01*
X001807Y006325D02*
X001000Y006325D01*
X001000Y006823D02*
X001630Y006823D01*
X001477Y007322D02*
X001000Y007322D01*
X001000Y007820D02*
X001330Y007820D01*
X001443Y008319D02*
X001000Y008319D01*
X001000Y008817D02*
X001330Y008817D01*
X001441Y009316D02*
X001000Y009316D01*
X001000Y009814D02*
X001330Y009814D01*
X001439Y010313D02*
X001000Y010313D01*
X002350Y009850D02*
X002850Y009850D01*
X003350Y009350D01*
X004799Y009350D01*
X004850Y009299D01*
X004850Y008350D01*
X004332Y007322D02*
X003223Y007322D01*
X003850Y007820D02*
X003850Y007820D01*
X003850Y008319D02*
X003850Y008319D01*
X002350Y007850D02*
X002350Y008850D01*
X003774Y010313D02*
X004254Y010313D01*
X003350Y011310D02*
X003350Y011310D01*
X002630Y012307D02*
X007570Y012307D01*
X006350Y009850D02*
X005901Y009401D01*
X005901Y009350D01*
X005850Y009299D01*
X005850Y008350D01*
X006850Y008350D02*
X007350Y008350D01*
X007850Y008850D01*
X007422Y006325D02*
X009070Y006325D01*
X009070Y005826D02*
X008260Y005826D01*
X008758Y005328D02*
X009070Y005328D01*
X009070Y004829D02*
X008830Y004829D01*
X008834Y004331D02*
X008834Y004331D01*
X008834Y003832D02*
X008834Y003832D01*
X008834Y003334D02*
X008834Y003334D01*
X008363Y003334D02*
X007721Y003334D01*
X007841Y003832D02*
X008159Y003832D01*
X008159Y002835D02*
X007841Y002835D01*
X007708Y002337D02*
X008026Y002337D01*
X007656Y001838D02*
X002544Y001838D01*
X002630Y001340D02*
X007570Y001340D01*
X006866Y002850D02*
X006350Y002850D01*
X005850Y003350D01*
X003850Y003350D01*
X003350Y002850D01*
X002350Y002850D01*
X002141Y003850D02*
X002141Y003850D01*
X002141Y003850D01*
X001630Y003832D02*
X001000Y003832D01*
X001000Y003334D02*
X001451Y003334D01*
X001330Y002835D02*
X001000Y002835D01*
X001000Y004331D02*
X001472Y004331D01*
X001330Y004829D02*
X001000Y004829D01*
X001000Y005328D02*
X001448Y005328D01*
X001630Y005826D02*
X001000Y005826D01*
X002350Y004850D02*
X002850Y004850D01*
X003350Y004350D01*
X004350Y004350D01*
X004850Y004850D01*
X004850Y005350D01*
X005850Y005350D02*
X005850Y004350D01*
X006350Y003850D01*
X005850Y003350D01*
X006350Y003850D02*
X006866Y003850D01*
X007850Y004850D02*
X007350Y005350D01*
X006850Y005350D01*
X005591Y002337D02*
X004109Y002337D01*
X005344Y010313D02*
X005356Y010313D01*
M02*
