%
M48
M72
T01C0.0276
T02C0.0320
T03C0.0400
T04C0.0433
T05C0.1260
%
T01
X12549Y10497
X14518Y10497
X14518Y19997
X12549Y19997
X20049Y24747
X22018Y24747
X25549Y19997
X27518Y19997
X27518Y10497
X25549Y10497
X14518Y30497
X12549Y30497
T02
X14533Y28997
X14033Y27997
X14033Y26997
X14033Y25997
X14033Y24997
X11033Y24997
X11033Y25997
X11033Y26997
X11033Y27997
X10533Y28997
X9033Y23997
X9033Y19997
X10533Y18497
X11033Y17497
X11033Y16497
X11033Y15497
X11033Y14497
X14033Y14497
X14033Y15497
X14033Y16497
X14033Y17497
X14533Y18497
X23533Y18497
X24033Y17497
X24033Y16497
X24033Y15497
X24033Y14497
X27033Y14497
X27033Y15497
X27033Y16497
X27033Y17497
X27533Y18497
X27533Y8997
X27033Y7997
X27033Y6997
X27033Y5997
X27033Y4997
X24033Y4997
X24033Y5997
X24033Y6997
X24033Y7997
X23533Y8997
X14533Y8997
X14033Y7997
X14033Y6997
X14033Y5997
X14033Y4997
X11033Y4997
X11033Y5997
X11033Y6997
X11033Y7997
X10533Y8997
T03
X8283Y8427
X8283Y7317
X8283Y6177
X8283Y5067
X8283Y3927
X9533Y3927
X9533Y5067
X8283Y9567
X8283Y10747
X8283Y11997
X8283Y13177
X8283Y14317
X8283Y15427
X8283Y16567
X15533Y15497
X21283Y15427
X21283Y14317
X21283Y13177
X21283Y11997
X21283Y10747
X21283Y9567
X21283Y8427
X21283Y7317
X21283Y6177
X21283Y5067
X21283Y3927
X15533Y5997
X21283Y16567
X28533Y15497
X28533Y5997
X15533Y25997
X20033Y26997
X21033Y26997
X22033Y26997
T04
X8927Y27482
X8927Y25513
T05
X2733Y2997
X15533Y11997
X34533Y11497
X35283Y2997
X32533Y31997
X35283Y35497
X21533Y31997
X2733Y35497
M30
