%
M48
M72
T01C0.0320
T02C0.0433
T03C0.0591
T04C0.1260
T05C0.1654
%
T01
X6350Y7500
X6350Y10500
X10350Y27500
X13350Y27500
X26850Y26000
X26850Y25000
X26850Y24000
X26850Y23000
X28350Y20500
X29350Y20500
X29850Y23000
X29850Y24000
X29850Y25000
X29850Y26000
X29350Y9500
X28350Y9500
T02
X28744Y11516
X28744Y13484
X28744Y16516
X28744Y18484
X19334Y15606
X17366Y15606
X14834Y15606
X12866Y15606
X10334Y15606
X8366Y15606
X3456Y14484
X3456Y12516
X3456Y9984
X3456Y8016
X8366Y8106
X10334Y8106
X12866Y8106
X14834Y8106
X17366Y8106
X19334Y8106
X19334Y23106
X17366Y23106
X14834Y23106
X12866Y23106
X10334Y23106
X8366Y23106
X3456Y23016
X3456Y24984
X2866Y30394
X4834Y30394
X7366Y30394
X9334Y30394
X11866Y30394
X13834Y30394
X16866Y30394
X18834Y30394
X21866Y30394
X23834Y30394
X26866Y30394
X28834Y30394
X3456Y18984
X3456Y17016
T03
X23350Y15000
X23350Y21500
X23350Y7500
T04
X1850Y5000
X1850Y32500
X31850Y32500
X31850Y5000
T05
X23350Y10500
X23350Y18000
X23350Y24500
M30
