G75*
%MOIN*%
%OFA0B0*%
%FSLAX24Y24*%
%IPPOS*%
%LPD*%
%AMOC8*
5,1,8,0,0,1.08239X$1,22.5*
%
%ADD10C,0.0080*%
%ADD11C,0.0060*%
%ADD12C,0.0520*%
%ADD13C,0.0886*%
%ADD14OC8,0.0660*%
%ADD15OC8,0.0520*%
%ADD16C,0.0700*%
%ADD17C,0.0059*%
%ADD18C,0.0500*%
D10*
X011404Y011540D02*
X011711Y011540D01*
X011864Y011693D01*
X011711Y012000D02*
X011404Y012000D01*
X011251Y011847D01*
X011251Y011693D01*
X011404Y011540D01*
X011711Y012000D02*
X011864Y012154D01*
X011864Y012307D01*
X011711Y012461D01*
X011404Y012461D01*
X011251Y012307D01*
X012171Y012461D02*
X012785Y012461D01*
X012785Y011540D01*
X012171Y011540D01*
X012478Y012000D02*
X012785Y012000D01*
X013092Y011540D02*
X013706Y011540D01*
X013706Y012461D01*
X013092Y012461D01*
X013399Y012000D02*
X013706Y012000D01*
X014013Y011847D02*
X014013Y011693D01*
X014166Y011540D01*
X014627Y011540D01*
X014627Y012461D01*
X014166Y012461D01*
X014013Y012307D01*
X014013Y012154D01*
X014166Y012000D01*
X014627Y012000D01*
X014934Y011693D02*
X014934Y012307D01*
X015087Y012461D01*
X015394Y012461D01*
X015548Y012307D01*
X015548Y011693D01*
X015394Y011540D01*
X015087Y011540D01*
X014934Y011693D01*
X014166Y012000D02*
X014013Y011847D01*
X015855Y011540D02*
X015855Y012461D01*
X016468Y012461D02*
X015855Y011540D01*
X016468Y011540D02*
X016468Y012461D01*
X016775Y012154D02*
X016775Y011540D01*
X016775Y012000D02*
X017389Y012000D01*
X017389Y012154D02*
X017389Y011540D01*
X017696Y011540D02*
X017696Y012461D01*
X017389Y012154D02*
X017082Y012461D01*
X016775Y012154D01*
X017696Y011540D02*
X018310Y012461D01*
X018310Y011540D01*
D11*
X010320Y011530D02*
X009893Y011957D01*
X009893Y012064D01*
X010000Y012171D01*
X010213Y012171D01*
X010320Y012064D01*
X010320Y011530D02*
X009893Y011530D01*
X009675Y011637D02*
X009248Y012064D01*
X009248Y011637D01*
X009355Y011530D01*
X009569Y011530D01*
X009675Y011637D01*
X009675Y012064D01*
X009569Y012171D01*
X009355Y012171D01*
X009248Y012064D01*
X009031Y011957D02*
X008817Y012171D01*
X008817Y011530D01*
X008604Y011530D02*
X009031Y011530D01*
X008386Y011637D02*
X008280Y011530D01*
X008066Y011530D01*
X007959Y011637D01*
X007959Y011850D01*
X008066Y011957D01*
X008173Y011957D01*
X008386Y011850D01*
X008386Y012171D01*
X007959Y012171D01*
D12*
X026850Y023000D03*
X026850Y024000D03*
X026850Y025000D03*
X026850Y026000D03*
X029850Y026000D03*
X029850Y025000D03*
X029850Y024000D03*
X029850Y023000D03*
D13*
X023350Y021500D03*
X023350Y015000D03*
X023350Y007500D03*
D14*
X028350Y009500D03*
X029350Y009500D03*
X029350Y020500D03*
X028350Y020500D03*
D15*
X013350Y027500D03*
X010350Y027500D03*
X006350Y010500D03*
X006350Y007500D03*
D16*
X008366Y007756D02*
X008366Y008456D01*
X010334Y008456D02*
X010334Y007756D01*
X012866Y007756D02*
X012866Y008456D01*
X014834Y008456D02*
X014834Y007756D01*
X017366Y007756D02*
X017366Y008456D01*
X019334Y008456D02*
X019334Y007756D01*
X019334Y015256D02*
X019334Y015956D01*
X017366Y015956D02*
X017366Y015256D01*
X014834Y015256D02*
X014834Y015956D01*
X012866Y015956D02*
X012866Y015256D01*
X010334Y015256D02*
X010334Y015956D01*
X008366Y015956D02*
X008366Y015256D01*
X003806Y014484D02*
X003106Y014484D01*
X003106Y012516D02*
X003806Y012516D01*
X003806Y009984D02*
X003106Y009984D01*
X003106Y008016D02*
X003806Y008016D01*
X003806Y017016D02*
X003106Y017016D01*
X003106Y018984D02*
X003806Y018984D01*
X003806Y023016D02*
X003106Y023016D01*
X003106Y024984D02*
X003806Y024984D01*
X008366Y023456D02*
X008366Y022756D01*
X010334Y022756D02*
X010334Y023456D01*
X012866Y023456D02*
X012866Y022756D01*
X014834Y022756D02*
X014834Y023456D01*
X017366Y023456D02*
X017366Y022756D01*
X019334Y022756D02*
X019334Y023456D01*
X018834Y030044D02*
X018834Y030744D01*
X016866Y030744D02*
X016866Y030044D01*
X013834Y030044D02*
X013834Y030744D01*
X011866Y030744D02*
X011866Y030044D01*
X009334Y030044D02*
X009334Y030744D01*
X007366Y030744D02*
X007366Y030044D01*
X004834Y030044D02*
X004834Y030744D01*
X002866Y030744D02*
X002866Y030044D01*
X021866Y030044D02*
X021866Y030744D01*
X023834Y030744D02*
X023834Y030044D01*
X026866Y030044D02*
X026866Y030744D01*
X028834Y030744D02*
X028834Y030044D01*
X029094Y018484D02*
X028394Y018484D01*
X028394Y016516D02*
X029094Y016516D01*
X029094Y013484D02*
X028394Y013484D01*
X028394Y011516D02*
X029094Y011516D01*
D17*
X020827Y011880D02*
X020827Y012120D01*
X020509Y012152D01*
X020475Y012259D01*
X020424Y012359D01*
X020626Y012606D01*
X020456Y012776D01*
X020209Y012574D01*
X020109Y012625D01*
X020002Y012659D01*
X019970Y012977D01*
X019730Y012977D01*
X019698Y012659D01*
X019591Y012625D01*
X019491Y012574D01*
X019244Y012776D01*
X019074Y012606D01*
X019276Y012359D01*
X019225Y012259D01*
X019191Y012152D01*
X018873Y012120D01*
X018873Y011880D01*
X019191Y011848D01*
X019225Y011741D01*
X019276Y011641D01*
X019074Y011394D01*
X019244Y011224D01*
X019491Y011426D01*
X019591Y011375D01*
X019732Y011716D01*
X019679Y011744D01*
X019632Y011782D01*
X019594Y011829D01*
X019566Y011882D01*
X019548Y011940D01*
X019542Y012000D01*
X019549Y012063D01*
X019568Y012123D01*
X019599Y012178D01*
X019641Y012225D01*
X019691Y012263D01*
X019748Y012290D01*
X019810Y012305D01*
X019873Y012307D01*
X019935Y012296D01*
X019994Y012272D01*
X020046Y012237D01*
X020090Y012192D01*
X020125Y012139D01*
X020147Y012080D01*
X020157Y012017D01*
X020154Y011954D01*
X020138Y011893D01*
X020110Y011836D01*
X020072Y011787D01*
X020023Y011746D01*
X019968Y011716D01*
X020109Y011375D01*
X020209Y011426D01*
X020456Y011224D01*
X020626Y011394D01*
X020424Y011641D01*
X020475Y011741D01*
X020509Y011848D01*
X020827Y011880D01*
X020827Y011918D02*
X020145Y011918D01*
X020155Y011975D02*
X020827Y011975D01*
X020827Y012033D02*
X020155Y012033D01*
X020143Y012090D02*
X020827Y012090D01*
X020553Y012148D02*
X020119Y012148D01*
X020077Y012205D02*
X020492Y012205D01*
X020473Y012263D02*
X020007Y012263D01*
X019690Y012263D02*
X019227Y012263D01*
X019208Y012205D02*
X019623Y012205D01*
X019582Y012148D02*
X019147Y012148D01*
X019256Y012320D02*
X020444Y012320D01*
X020440Y012378D02*
X019260Y012378D01*
X019213Y012436D02*
X020487Y012436D01*
X020534Y012493D02*
X019166Y012493D01*
X019120Y012551D02*
X020580Y012551D01*
X020623Y012608D02*
X020251Y012608D01*
X020321Y012666D02*
X020566Y012666D01*
X020508Y012723D02*
X020392Y012723D01*
X020142Y012608D02*
X019558Y012608D01*
X019449Y012608D02*
X019077Y012608D01*
X019134Y012666D02*
X019379Y012666D01*
X019308Y012723D02*
X019192Y012723D01*
X019698Y012666D02*
X020002Y012666D01*
X019996Y012723D02*
X019704Y012723D01*
X019710Y012781D02*
X019990Y012781D01*
X019984Y012838D02*
X019716Y012838D01*
X019722Y012896D02*
X019978Y012896D01*
X019972Y012954D02*
X019728Y012954D01*
X019558Y012090D02*
X018873Y012090D01*
X018873Y012033D02*
X019546Y012033D01*
X019545Y011975D02*
X018873Y011975D01*
X018873Y011918D02*
X019555Y011918D01*
X019578Y011860D02*
X019071Y011860D01*
X019205Y011802D02*
X019616Y011802D01*
X019678Y011745D02*
X019224Y011745D01*
X019253Y011687D02*
X019720Y011687D01*
X019697Y011630D02*
X019267Y011630D01*
X019220Y011572D02*
X019673Y011572D01*
X019649Y011515D02*
X019173Y011515D01*
X019126Y011457D02*
X019625Y011457D01*
X019601Y011400D02*
X019543Y011400D01*
X019459Y011400D02*
X019079Y011400D01*
X019126Y011342D02*
X019388Y011342D01*
X019318Y011284D02*
X019184Y011284D01*
X019242Y011227D02*
X019247Y011227D01*
X020027Y011572D02*
X020480Y011572D01*
X020433Y011630D02*
X020003Y011630D01*
X019980Y011687D02*
X020447Y011687D01*
X020476Y011745D02*
X020021Y011745D01*
X020084Y011802D02*
X020495Y011802D01*
X020629Y011860D02*
X020122Y011860D01*
X020051Y011515D02*
X020527Y011515D01*
X020574Y011457D02*
X020075Y011457D01*
X020099Y011400D02*
X020157Y011400D01*
X020241Y011400D02*
X020621Y011400D01*
X020574Y011342D02*
X020312Y011342D01*
X020382Y011284D02*
X020516Y011284D01*
X020458Y011227D02*
X020453Y011227D01*
D18*
X003136Y004467D02*
X003010Y004250D01*
X030690Y004250D01*
X030564Y004467D01*
X030470Y004818D01*
X030470Y005182D01*
X030564Y005533D01*
X030746Y005847D01*
X031003Y006104D01*
X031317Y006286D01*
X031668Y006380D01*
X032032Y006380D01*
X032383Y006286D01*
X032697Y006104D01*
X032954Y005847D01*
X032970Y005820D01*
X032970Y031680D01*
X032954Y031653D01*
X032697Y031396D01*
X032383Y031214D01*
X032032Y031120D01*
X031668Y031120D01*
X031317Y031214D01*
X031003Y031396D01*
X030746Y031653D01*
X030564Y031967D01*
X030470Y032318D01*
X030470Y032682D01*
X030564Y033033D01*
X030687Y033246D01*
X003013Y033246D01*
X003136Y033033D01*
X003230Y032682D01*
X003230Y032318D01*
X003136Y031967D01*
X002954Y031653D01*
X002734Y031432D01*
X002820Y031444D01*
X002866Y031444D01*
X002866Y030394D01*
X002866Y030394D01*
X003566Y030394D01*
X003566Y030790D01*
X003554Y030881D01*
X003530Y030969D01*
X003495Y031054D01*
X003449Y031133D01*
X003393Y031206D01*
X003328Y031271D01*
X003255Y031327D01*
X003176Y031373D01*
X003091Y031408D01*
X003003Y031432D01*
X002912Y031444D01*
X002866Y031444D01*
X002866Y030394D01*
X002866Y030394D01*
X003566Y030394D01*
X003566Y029998D01*
X003554Y029907D01*
X003530Y029818D01*
X003495Y029733D01*
X003449Y029654D01*
X003393Y029581D01*
X003328Y029516D01*
X003255Y029460D01*
X003176Y029415D01*
X003091Y029379D01*
X003003Y029356D01*
X002912Y029344D01*
X002866Y029344D01*
X002866Y030394D01*
X002866Y030394D01*
X002166Y030394D01*
X002166Y030790D01*
X002178Y030881D01*
X002201Y030969D01*
X002237Y031054D01*
X002282Y031133D01*
X002334Y031201D01*
X002032Y031120D01*
X001668Y031120D01*
X001317Y031214D01*
X001100Y031340D01*
X001100Y018664D01*
X001284Y018848D01*
X002284Y019848D01*
X002651Y020000D01*
X002666Y020000D01*
X002682Y020009D01*
X002961Y020084D01*
X003951Y020084D01*
X004231Y020009D01*
X004482Y019864D01*
X004687Y019660D01*
X004831Y019409D01*
X004906Y019129D01*
X004906Y018839D01*
X004831Y018560D01*
X004687Y018309D01*
X004482Y018104D01*
X004302Y018000D01*
X004482Y017896D01*
X004687Y017691D01*
X004831Y017440D01*
X004906Y017161D01*
X004906Y016980D01*
X005280Y016606D01*
X007471Y016606D01*
X007486Y016632D01*
X007690Y016837D01*
X007941Y016981D01*
X008221Y017056D01*
X008511Y017056D01*
X008790Y016981D01*
X009041Y016837D01*
X009246Y016632D01*
X009350Y016452D01*
X009454Y016632D01*
X009659Y016837D01*
X009910Y016981D01*
X010189Y017056D01*
X010479Y017056D01*
X010759Y016981D01*
X011010Y016837D01*
X011214Y016632D01*
X011359Y016381D01*
X011434Y016101D01*
X011434Y015111D01*
X011375Y014889D01*
X011764Y014500D01*
X013834Y014500D01*
X013834Y014788D01*
X013809Y014832D01*
X013734Y015111D01*
X013734Y016101D01*
X013809Y016381D01*
X013954Y016632D01*
X014159Y016837D01*
X014410Y016981D01*
X014689Y017056D01*
X014979Y017056D01*
X015259Y016981D01*
X015510Y016837D01*
X015714Y016632D01*
X015859Y016381D01*
X015934Y016101D01*
X015934Y015111D01*
X015859Y014832D01*
X015834Y014788D01*
X015834Y014500D01*
X018334Y014500D01*
X018334Y014788D01*
X018309Y014832D01*
X018234Y015111D01*
X018234Y016101D01*
X018309Y016381D01*
X018454Y016632D01*
X018659Y016837D01*
X018910Y016981D01*
X019189Y017056D01*
X019479Y017056D01*
X019759Y016981D01*
X020010Y016837D01*
X020214Y016632D01*
X020359Y016381D01*
X020434Y016101D01*
X020434Y015111D01*
X020359Y014832D01*
X020350Y014816D01*
X020350Y014500D01*
X021436Y014500D01*
X022181Y015245D01*
X022238Y015460D01*
X022395Y015732D01*
X022584Y015921D01*
X022438Y015955D01*
X022438Y015955D01*
X022000Y016166D01*
X022000Y016166D01*
X021621Y016468D01*
X021621Y016468D01*
X021621Y016468D01*
X021319Y016847D01*
X021319Y016847D01*
X021108Y017284D01*
X021108Y017284D01*
X021000Y017757D01*
X021000Y018243D01*
X021108Y018716D01*
X021108Y018716D01*
X021319Y019153D01*
X021319Y019153D01*
X021621Y019532D01*
X021621Y019532D01*
X021621Y019532D01*
X022000Y019834D01*
X022000Y019834D01*
X022438Y020045D01*
X022438Y020045D01*
X022911Y020153D01*
X023789Y020153D01*
X024262Y020045D01*
X024262Y020045D01*
X024700Y019834D01*
X024700Y019834D01*
X025079Y019532D01*
X025079Y019532D01*
X025079Y019532D01*
X025350Y019192D01*
X025350Y022699D01*
X025502Y023066D01*
X025784Y023348D01*
X026022Y023587D01*
X026042Y023620D01*
X026230Y023808D01*
X026263Y023828D01*
X026264Y023829D01*
X026255Y023857D01*
X026240Y023952D01*
X026240Y024000D01*
X026651Y024000D01*
X026651Y024000D01*
X026680Y024000D01*
X026680Y024000D01*
X025651Y024000D01*
X025642Y024004D01*
X025592Y023784D01*
X025592Y023784D01*
X025381Y023347D01*
X025381Y023347D01*
X025079Y022968D01*
X025079Y022968D01*
X024700Y022666D01*
X024700Y022666D01*
X024262Y022455D01*
X024262Y022455D01*
X024116Y022421D01*
X024305Y022232D01*
X024462Y021960D01*
X024543Y021657D01*
X024543Y021343D01*
X024462Y021040D01*
X024305Y020768D01*
X024082Y020545D01*
X023810Y020388D01*
X023507Y020307D01*
X023193Y020307D01*
X022890Y020388D01*
X022696Y020500D01*
X020151Y020500D01*
X019784Y020652D01*
X018768Y021668D01*
X018768Y021668D01*
X018486Y021949D01*
X018376Y022216D01*
X018309Y022332D01*
X018234Y022611D01*
X018234Y023601D01*
X018309Y023881D01*
X018350Y023952D01*
X018350Y024000D01*
X017807Y024000D01*
X017828Y023984D01*
X017893Y023919D01*
X017949Y023846D01*
X017995Y023767D01*
X018030Y023682D01*
X018054Y023593D01*
X018066Y023502D01*
X018066Y023106D01*
X017366Y023106D01*
X017366Y023106D01*
X017366Y022056D01*
X017412Y022056D01*
X017503Y022068D01*
X017591Y022092D01*
X017676Y022127D01*
X017755Y022173D01*
X017828Y022229D01*
X017893Y022294D01*
X017949Y022367D01*
X017995Y022446D01*
X018030Y022531D01*
X018054Y022619D01*
X018066Y022710D01*
X018066Y023106D01*
X017366Y023106D01*
X017366Y023106D01*
X017366Y022056D01*
X017320Y022056D01*
X017229Y022068D01*
X017140Y022092D01*
X017055Y022127D01*
X016976Y022173D01*
X016903Y022229D01*
X016838Y022294D01*
X016782Y022367D01*
X016737Y022446D01*
X016701Y022531D01*
X016678Y022619D01*
X016666Y022710D01*
X016666Y023106D01*
X017366Y023106D01*
X017366Y023106D01*
X016666Y023106D01*
X016666Y023502D01*
X016678Y023593D01*
X016701Y023682D01*
X016737Y023767D01*
X016782Y023846D01*
X016838Y023919D01*
X016903Y023984D01*
X016924Y024000D01*
X015834Y024000D01*
X015834Y023924D01*
X015859Y023881D01*
X015934Y023601D01*
X015934Y022611D01*
X015859Y022332D01*
X015714Y022081D01*
X015510Y021876D01*
X015259Y021731D01*
X014979Y021656D01*
X014689Y021656D01*
X014410Y021731D01*
X014159Y021876D01*
X013954Y022081D01*
X013809Y022332D01*
X013734Y022611D01*
X013734Y023601D01*
X013809Y023881D01*
X013834Y023924D01*
X013834Y024000D01*
X013307Y024000D01*
X013328Y023984D01*
X013393Y023919D01*
X013449Y023846D01*
X013495Y023767D01*
X013530Y023682D01*
X013554Y023593D01*
X013566Y023502D01*
X013566Y023106D01*
X012866Y023106D01*
X012866Y023106D01*
X012866Y022056D01*
X012912Y022056D01*
X013003Y022068D01*
X013091Y022092D01*
X013176Y022127D01*
X013255Y022173D01*
X013328Y022229D01*
X013393Y022294D01*
X013449Y022367D01*
X013495Y022446D01*
X013530Y022531D01*
X013554Y022619D01*
X013566Y022710D01*
X013566Y023106D01*
X012866Y023106D01*
X012866Y023106D01*
X012866Y022056D01*
X012820Y022056D01*
X012729Y022068D01*
X012640Y022092D01*
X012555Y022127D01*
X012476Y022173D01*
X012403Y022229D01*
X012338Y022294D01*
X012282Y022367D01*
X012237Y022446D01*
X012201Y022531D01*
X012178Y022619D01*
X012166Y022710D01*
X012166Y023106D01*
X012866Y023106D01*
X012866Y023106D01*
X012166Y023106D01*
X012166Y023502D01*
X012178Y023593D01*
X012201Y023682D01*
X012237Y023767D01*
X012282Y023846D01*
X012338Y023919D01*
X012403Y023984D01*
X012424Y024000D01*
X011350Y024000D01*
X011350Y023897D01*
X011359Y023881D01*
X011434Y023601D01*
X011434Y022611D01*
X011359Y022332D01*
X011214Y022081D01*
X011010Y021876D01*
X010759Y021731D01*
X010479Y021656D01*
X010189Y021656D01*
X009910Y021731D01*
X009659Y021876D01*
X009454Y022081D01*
X009350Y022261D01*
X009246Y022081D01*
X009041Y021876D01*
X008790Y021731D01*
X008511Y021656D01*
X008221Y021656D01*
X007941Y021731D01*
X007690Y021876D01*
X007486Y022081D01*
X007471Y022106D01*
X004431Y022106D01*
X004231Y021991D01*
X003951Y021916D01*
X002961Y021916D01*
X002682Y021991D01*
X002431Y022136D01*
X002226Y022340D01*
X002081Y022591D01*
X002006Y022871D01*
X002006Y023161D01*
X002081Y023440D01*
X002226Y023691D01*
X002431Y023896D01*
X002611Y024000D01*
X002431Y024104D01*
X002226Y024309D01*
X002081Y024560D01*
X002006Y024839D01*
X002006Y025129D01*
X002081Y025409D01*
X002226Y025660D01*
X002431Y025864D01*
X002682Y026009D01*
X002961Y026084D01*
X003834Y026084D01*
X003834Y029576D01*
X003809Y029619D01*
X003734Y029899D01*
X003734Y030889D01*
X003809Y031168D01*
X003954Y031419D01*
X004159Y031624D01*
X004410Y031769D01*
X004689Y031844D01*
X004979Y031844D01*
X005259Y031769D01*
X005510Y031624D01*
X005714Y031419D01*
X005859Y031168D01*
X005934Y030889D01*
X005934Y029899D01*
X005859Y029619D01*
X005834Y029576D01*
X005834Y028398D01*
X006350Y028914D01*
X006350Y029603D01*
X006341Y029619D01*
X006266Y029899D01*
X006266Y030889D01*
X006341Y031168D01*
X006486Y031419D01*
X006690Y031624D01*
X006941Y031769D01*
X007221Y031844D01*
X007511Y031844D01*
X007790Y031769D01*
X008041Y031624D01*
X008246Y031419D01*
X008391Y031168D01*
X008466Y030889D01*
X008466Y029899D01*
X008391Y029619D01*
X008366Y029576D01*
X008366Y028898D01*
X008764Y028500D01*
X009922Y028500D01*
X009932Y028510D01*
X010768Y028510D01*
X011360Y027918D01*
X011360Y027082D01*
X010768Y026490D01*
X009932Y026490D01*
X009922Y026500D01*
X008151Y026500D01*
X007784Y026652D01*
X007350Y027086D01*
X007350Y027086D01*
X007350Y025301D01*
X007198Y024934D01*
X006698Y024434D01*
X006416Y024152D01*
X006306Y024106D01*
X007471Y024106D01*
X007486Y024132D01*
X007690Y024337D01*
X007941Y024481D01*
X008221Y024556D01*
X008511Y024556D01*
X008790Y024481D01*
X009041Y024337D01*
X009246Y024132D01*
X009350Y023952D01*
X009350Y023952D01*
X009350Y024699D01*
X009502Y025066D01*
X009784Y025348D01*
X009784Y025348D01*
X010002Y025566D01*
X010002Y025566D01*
X010284Y025848D01*
X010651Y026000D01*
X014549Y026000D01*
X014850Y025875D01*
X015151Y026000D01*
X019049Y026000D01*
X019416Y025848D01*
X019698Y025566D01*
X020198Y025066D01*
X020350Y024699D01*
X020350Y023897D01*
X020359Y023881D01*
X020434Y023601D01*
X020434Y022830D01*
X020764Y022500D01*
X022344Y022500D01*
X022000Y022666D01*
X022000Y022666D01*
X021621Y022968D01*
X021621Y022968D01*
X021621Y022968D01*
X021319Y023347D01*
X021319Y023347D01*
X021108Y023784D01*
X021108Y023784D01*
X021000Y024257D01*
X021000Y024743D01*
X021108Y025216D01*
X021108Y025216D01*
X021319Y025653D01*
X021319Y025653D01*
X021621Y026032D01*
X021621Y026032D01*
X021621Y026032D01*
X022000Y026334D01*
X022000Y026334D01*
X022438Y026545D01*
X022438Y026545D01*
X022911Y026653D01*
X023789Y026653D01*
X023850Y026639D01*
X023850Y027000D01*
X015151Y027000D01*
X014784Y027152D01*
X014360Y027576D01*
X014360Y027082D01*
X013768Y026490D01*
X012932Y026490D01*
X012340Y027082D01*
X012340Y027096D01*
X011002Y028434D01*
X010850Y028801D01*
X010850Y029603D01*
X010841Y029619D01*
X010766Y029899D01*
X010766Y030889D01*
X010841Y031168D01*
X010986Y031419D01*
X011190Y031624D01*
X011441Y031769D01*
X011721Y031844D01*
X012011Y031844D01*
X012290Y031769D01*
X012541Y031624D01*
X012746Y031419D01*
X012850Y031239D01*
X012954Y031419D01*
X013159Y031624D01*
X013410Y031769D01*
X013689Y031844D01*
X013979Y031844D01*
X014259Y031769D01*
X014510Y031624D01*
X014714Y031419D01*
X014859Y031168D01*
X014934Y030889D01*
X014934Y029899D01*
X014920Y029845D01*
X015764Y029000D01*
X015984Y029000D01*
X015866Y029285D01*
X015866Y029576D01*
X015841Y029619D01*
X015766Y029899D01*
X015766Y030889D01*
X015841Y031168D01*
X015986Y031419D01*
X016190Y031624D01*
X016441Y031769D01*
X016721Y031844D01*
X017011Y031844D01*
X017290Y031769D01*
X017541Y031624D01*
X017746Y031419D01*
X017891Y031168D01*
X017966Y030889D01*
X017966Y030000D01*
X018134Y030000D01*
X018134Y030394D01*
X018834Y030394D01*
X018834Y031444D01*
X018788Y031444D01*
X018697Y031432D01*
X018609Y031408D01*
X018524Y031373D01*
X018445Y031327D01*
X018372Y031271D01*
X018307Y031206D01*
X018251Y031133D01*
X018205Y031054D01*
X018170Y030969D01*
X018146Y030881D01*
X018134Y030790D01*
X018134Y030394D01*
X018834Y030394D01*
X018834Y030394D01*
X018834Y030394D01*
X018834Y031444D01*
X018880Y031444D01*
X018971Y031432D01*
X019060Y031408D01*
X019145Y031373D01*
X019224Y031327D01*
X019297Y031271D01*
X019362Y031206D01*
X019418Y031133D01*
X019463Y031054D01*
X019499Y030969D01*
X019522Y030881D01*
X019534Y030790D01*
X019534Y030394D01*
X018834Y030394D01*
X018834Y030394D01*
X019534Y030394D01*
X019534Y030000D01*
X021166Y030000D01*
X021166Y030394D01*
X021866Y030394D01*
X021866Y030394D01*
X021866Y031444D01*
X021912Y031444D01*
X022003Y031432D01*
X022091Y031408D01*
X022176Y031373D01*
X022255Y031327D01*
X022328Y031271D01*
X022393Y031206D01*
X022449Y031133D01*
X022495Y031054D01*
X022530Y030969D01*
X022554Y030881D01*
X022566Y030790D01*
X022566Y030394D01*
X021866Y030394D01*
X021866Y030394D01*
X021866Y031444D01*
X021820Y031444D01*
X021729Y031432D01*
X021640Y031408D01*
X021555Y031373D01*
X021476Y031327D01*
X021403Y031271D01*
X021338Y031206D01*
X021282Y031133D01*
X021237Y031054D01*
X021201Y030969D01*
X021178Y030881D01*
X021166Y030790D01*
X021166Y030394D01*
X021866Y030394D01*
X022566Y030394D01*
X022566Y030000D01*
X022734Y030000D01*
X022734Y030889D01*
X022809Y031168D01*
X022876Y031284D01*
X022986Y031551D01*
X023268Y031832D01*
X024284Y032848D01*
X024651Y033000D01*
X028549Y033000D01*
X028916Y032848D01*
X029198Y032566D01*
X029698Y032066D01*
X029850Y031699D01*
X029850Y031184D01*
X029859Y031168D01*
X029934Y030889D01*
X029934Y029899D01*
X029859Y029619D01*
X029834Y029576D01*
X029834Y027010D01*
X029983Y027010D01*
X030240Y026941D01*
X030470Y026808D01*
X030658Y026620D01*
X030791Y026390D01*
X030860Y026133D01*
X030860Y025871D01*
X030916Y025848D01*
X031198Y025566D01*
X031698Y025066D01*
X031850Y024699D01*
X031850Y020801D01*
X031725Y020500D01*
X031850Y020199D01*
X031850Y019301D01*
X031698Y018934D01*
X031416Y018652D01*
X030416Y017652D01*
X030049Y017500D01*
X029589Y017500D01*
X029518Y017459D01*
X029239Y017384D01*
X028249Y017384D01*
X027969Y017459D01*
X027718Y017604D01*
X027513Y017809D01*
X027369Y018060D01*
X027350Y018129D01*
X027350Y012516D01*
X027926Y012516D01*
X027969Y012541D01*
X028249Y012616D01*
X029239Y012616D01*
X029518Y012541D01*
X029769Y012396D01*
X029974Y012191D01*
X030119Y011940D01*
X030194Y011661D01*
X030194Y011371D01*
X030119Y011091D01*
X029974Y010840D01*
X029769Y010636D01*
X029518Y010491D01*
X029239Y010416D01*
X028962Y010416D01*
X029197Y010180D01*
X029350Y010180D01*
X029350Y010027D01*
X029350Y010027D01*
X029350Y010180D01*
X029632Y010180D01*
X030030Y009782D01*
X030030Y009500D01*
X029430Y009500D01*
X029430Y009500D01*
X030030Y009500D01*
X030030Y009218D01*
X029632Y008820D01*
X029350Y008820D01*
X029350Y008973D01*
X029350Y008973D01*
X029350Y008820D01*
X029197Y008820D01*
X028797Y008420D01*
X027903Y008420D01*
X027823Y008500D01*
X026651Y008500D01*
X026284Y008652D01*
X026002Y008934D01*
X025502Y009434D01*
X025466Y009522D01*
X025381Y009347D01*
X025381Y009347D01*
X025079Y008968D01*
X025079Y008968D01*
X025079Y008968D01*
X024700Y008666D01*
X024700Y008666D01*
X024262Y008455D01*
X024262Y008455D01*
X024116Y008421D01*
X024305Y008232D01*
X024462Y007960D01*
X024543Y007657D01*
X024543Y007343D01*
X024462Y007040D01*
X024350Y006846D01*
X024350Y006301D01*
X024198Y005934D01*
X023698Y005434D01*
X023416Y005152D01*
X023049Y005000D01*
X019651Y005000D01*
X019284Y005152D01*
X018768Y005668D01*
X018486Y005949D01*
X018334Y006317D01*
X018334Y007288D01*
X018309Y007332D01*
X018234Y007611D01*
X018234Y008500D01*
X018066Y008500D01*
X018066Y008106D01*
X017366Y008106D01*
X017366Y008106D01*
X017366Y007056D01*
X017412Y007056D01*
X017503Y007068D01*
X017591Y007092D01*
X017676Y007127D01*
X017755Y007173D01*
X017828Y007229D01*
X017893Y007294D01*
X017949Y007367D01*
X017995Y007446D01*
X018030Y007531D01*
X018054Y007619D01*
X018066Y007710D01*
X018066Y008106D01*
X017366Y008106D01*
X017366Y008106D01*
X017366Y007056D01*
X017320Y007056D01*
X017229Y007068D01*
X017140Y007092D01*
X017055Y007127D01*
X016976Y007173D01*
X016903Y007229D01*
X016838Y007294D01*
X016782Y007367D01*
X016737Y007446D01*
X016701Y007531D01*
X016678Y007619D01*
X016666Y007710D01*
X016666Y008106D01*
X017366Y008106D01*
X017366Y008106D01*
X016666Y008106D01*
X016666Y008500D01*
X015534Y008500D01*
X015534Y008106D01*
X014834Y008106D01*
X014834Y008106D01*
X014834Y007056D01*
X014788Y007056D01*
X014697Y007068D01*
X014609Y007092D01*
X014524Y007127D01*
X014445Y007173D01*
X014372Y007229D01*
X014307Y007294D01*
X014251Y007367D01*
X014205Y007446D01*
X014170Y007531D01*
X014146Y007619D01*
X014134Y007710D01*
X014134Y008106D01*
X014834Y008106D01*
X014834Y008106D01*
X014834Y007056D01*
X014880Y007056D01*
X014971Y007068D01*
X015060Y007092D01*
X015145Y007127D01*
X015224Y007173D01*
X015297Y007229D01*
X015362Y007294D01*
X015418Y007367D01*
X015463Y007446D01*
X015499Y007531D01*
X015522Y007619D01*
X015534Y007710D01*
X015534Y008106D01*
X014834Y008106D01*
X014134Y008106D01*
X014134Y008500D01*
X013966Y008500D01*
X013966Y007611D01*
X013891Y007332D01*
X013746Y007081D01*
X013541Y006876D01*
X013290Y006731D01*
X013011Y006656D01*
X012721Y006656D01*
X012441Y006731D01*
X012190Y006876D01*
X011986Y007081D01*
X011841Y007332D01*
X011766Y007611D01*
X011766Y008500D01*
X011434Y008500D01*
X011434Y007611D01*
X011359Y007332D01*
X011350Y007316D01*
X011350Y007301D01*
X011198Y006934D01*
X010916Y006652D01*
X009916Y005652D01*
X009549Y005500D01*
X007151Y005500D01*
X006784Y005652D01*
X006502Y005934D01*
X005946Y006490D01*
X005932Y006490D01*
X005340Y007082D01*
X005340Y007576D01*
X004916Y007152D01*
X004549Y007000D01*
X004247Y007000D01*
X004231Y006991D01*
X003951Y006916D01*
X002961Y006916D01*
X002682Y006991D01*
X002431Y007136D01*
X002226Y007340D01*
X002081Y007591D01*
X002006Y007871D01*
X002006Y008161D01*
X002081Y008440D01*
X002226Y008691D01*
X002431Y008896D01*
X002682Y009041D01*
X002961Y009116D01*
X003850Y009116D01*
X003850Y009284D01*
X003456Y009284D01*
X003456Y009984D01*
X002406Y009984D01*
X002406Y009938D01*
X002418Y009847D01*
X002442Y009759D01*
X002477Y009674D01*
X002523Y009595D01*
X002579Y009522D01*
X002644Y009457D01*
X002717Y009401D01*
X002796Y009355D01*
X002881Y009320D01*
X002969Y009296D01*
X003060Y009284D01*
X003456Y009284D01*
X003456Y009984D01*
X003456Y009984D01*
X003456Y009984D01*
X002406Y009984D01*
X002406Y010030D01*
X002418Y010121D01*
X002442Y010210D01*
X002477Y010295D01*
X002523Y010374D01*
X002579Y010447D01*
X002644Y010512D01*
X002717Y010568D01*
X002796Y010613D01*
X002881Y010649D01*
X002969Y010672D01*
X003060Y010684D01*
X003456Y010684D01*
X003456Y009984D01*
X003456Y009984D01*
X003456Y010684D01*
X003852Y010684D01*
X003943Y010672D01*
X004032Y010649D01*
X004069Y010633D01*
X004502Y011066D01*
X004784Y011348D01*
X005151Y011500D01*
X005922Y011500D01*
X005932Y011510D01*
X006350Y011510D01*
X006350Y013500D01*
X004302Y013500D01*
X004231Y013459D01*
X003951Y013384D01*
X002961Y013384D01*
X002682Y013459D01*
X002638Y013484D01*
X002135Y013484D01*
X001768Y013636D01*
X001486Y013918D01*
X001464Y013972D01*
X001284Y014152D01*
X001284Y014152D01*
X001100Y014336D01*
X001100Y006160D01*
X001317Y006286D01*
X001668Y006380D01*
X002032Y006380D01*
X002383Y006286D01*
X002697Y006104D01*
X002954Y005847D01*
X003136Y005533D01*
X003230Y005182D01*
X003230Y004818D01*
X003136Y004467D01*
X003142Y004491D02*
X030558Y004491D01*
X030470Y004990D02*
X003230Y004990D01*
X003148Y005488D02*
X018948Y005488D01*
X018471Y005987D02*
X010251Y005987D01*
X010749Y006485D02*
X018334Y006485D01*
X018334Y006984D02*
X013649Y006984D01*
X013931Y007482D02*
X014190Y007482D01*
X014134Y007981D02*
X013966Y007981D01*
X013966Y008479D02*
X014134Y008479D01*
X014834Y008106D02*
X014834Y008106D01*
X014834Y007981D02*
X014834Y007981D01*
X014834Y007482D02*
X014834Y007482D01*
X015478Y007482D02*
X016722Y007482D01*
X016666Y007981D02*
X015534Y007981D01*
X015534Y008479D02*
X016666Y008479D01*
X017366Y007981D02*
X017366Y007981D01*
X017366Y007482D02*
X017366Y007482D01*
X018010Y007482D02*
X018269Y007482D01*
X018234Y007981D02*
X018066Y007981D01*
X018066Y008479D02*
X018234Y008479D01*
X019334Y008106D02*
X019334Y006516D01*
X019850Y006000D01*
X022850Y006000D01*
X023350Y006500D01*
X023350Y007500D01*
X024543Y007482D02*
X032970Y007482D01*
X032970Y006984D02*
X024429Y006984D01*
X024350Y006485D02*
X032970Y006485D01*
X032970Y005987D02*
X032815Y005987D01*
X030885Y005987D02*
X024220Y005987D01*
X023752Y005488D02*
X030552Y005488D01*
X032970Y007981D02*
X024450Y007981D01*
X024312Y008479D02*
X027844Y008479D01*
X028856Y008479D02*
X032970Y008479D01*
X032970Y008978D02*
X029789Y008978D01*
X030030Y009476D02*
X032970Y009476D01*
X032970Y009975D02*
X029837Y009975D01*
X029452Y010473D02*
X032970Y010473D01*
X032970Y010972D02*
X030050Y010972D01*
X030194Y011470D02*
X032970Y011470D01*
X032970Y011969D02*
X030102Y011969D01*
X029646Y012467D02*
X032970Y012467D01*
X032970Y012966D02*
X029565Y012966D01*
X029556Y012957D02*
X029621Y013022D01*
X029677Y013095D01*
X029723Y013174D01*
X029758Y013259D01*
X029782Y013347D01*
X029794Y013438D01*
X029794Y013484D01*
X028744Y013484D01*
X028744Y013484D01*
X028744Y012784D01*
X029140Y012784D01*
X029231Y012796D01*
X029319Y012820D01*
X029404Y012855D01*
X029483Y012901D01*
X029556Y012957D01*
X029794Y013464D02*
X032970Y013464D01*
X032970Y013963D02*
X029605Y013963D01*
X029621Y013947D02*
X029556Y014012D01*
X029483Y014068D01*
X029404Y014113D01*
X029319Y014149D01*
X029231Y014172D01*
X029140Y014184D01*
X028744Y014184D01*
X028744Y013484D01*
X028744Y013484D01*
X029794Y013484D01*
X029794Y013530D01*
X029782Y013621D01*
X029758Y013710D01*
X029723Y013795D01*
X029677Y013874D01*
X029621Y013947D01*
X028744Y013963D02*
X028744Y013963D01*
X028744Y014184D02*
X028744Y013484D01*
X028744Y012784D01*
X028348Y012784D01*
X028257Y012796D01*
X028168Y012820D01*
X028083Y012855D01*
X028004Y012901D01*
X027931Y012957D01*
X027866Y013022D01*
X027810Y013095D01*
X027765Y013174D01*
X027729Y013259D01*
X027706Y013347D01*
X027694Y013438D01*
X027694Y013484D01*
X028744Y013484D01*
X028744Y013484D01*
X028744Y013484D01*
X027694Y013484D01*
X027694Y013530D01*
X027706Y013621D01*
X027729Y013710D01*
X027765Y013795D01*
X027810Y013874D01*
X027866Y013947D01*
X027931Y014012D01*
X028004Y014068D01*
X028083Y014113D01*
X028168Y014149D01*
X028257Y014172D01*
X028348Y014184D01*
X028744Y014184D01*
X028744Y013464D02*
X028744Y013464D01*
X028744Y012966D02*
X028744Y012966D01*
X027922Y012966D02*
X027350Y012966D01*
X027350Y013464D02*
X027694Y013464D01*
X027882Y013963D02*
X027350Y013963D01*
X027350Y014461D02*
X032970Y014461D01*
X032970Y014960D02*
X027350Y014960D01*
X027350Y015458D02*
X032970Y015458D01*
X032970Y015957D02*
X029515Y015957D01*
X029483Y015932D02*
X029556Y015988D01*
X029621Y016053D01*
X029677Y016126D01*
X029723Y016205D01*
X029758Y016290D01*
X029782Y016379D01*
X029794Y016470D01*
X029794Y016516D01*
X029794Y016562D01*
X029782Y016653D01*
X029758Y016741D01*
X029723Y016826D01*
X029677Y016905D01*
X029621Y016978D01*
X029556Y017043D01*
X029483Y017099D01*
X029404Y017145D01*
X029319Y017180D01*
X029231Y017204D01*
X029140Y017216D01*
X028744Y017216D01*
X028744Y016516D01*
X029794Y016516D01*
X028744Y016516D01*
X028744Y016516D01*
X028744Y016516D01*
X028744Y017216D01*
X028348Y017216D01*
X028257Y017204D01*
X028168Y017180D01*
X028083Y017145D01*
X028004Y017099D01*
X027931Y017043D01*
X027866Y016978D01*
X027810Y016905D01*
X027765Y016826D01*
X027729Y016741D01*
X027706Y016653D01*
X027694Y016562D01*
X027694Y016516D01*
X028744Y016516D01*
X028744Y015816D01*
X029140Y015816D01*
X029231Y015828D01*
X029319Y015851D01*
X029404Y015887D01*
X029483Y015932D01*
X029792Y016455D02*
X032970Y016455D01*
X032970Y016954D02*
X029640Y016954D01*
X029491Y017452D02*
X032970Y017452D01*
X032970Y017951D02*
X030715Y017951D01*
X031213Y018449D02*
X032970Y018449D01*
X032970Y018948D02*
X031704Y018948D01*
X031850Y019446D02*
X032970Y019446D01*
X032970Y019945D02*
X031850Y019945D01*
X031749Y020443D02*
X032970Y020443D01*
X032970Y020942D02*
X031850Y020942D01*
X031850Y021440D02*
X032970Y021440D01*
X032970Y021939D02*
X031850Y021939D01*
X031850Y022437D02*
X032970Y022437D01*
X032970Y022936D02*
X031850Y022936D01*
X031850Y023434D02*
X032970Y023434D01*
X032970Y023933D02*
X031850Y023933D01*
X031850Y024431D02*
X032970Y024431D01*
X032970Y024930D02*
X031754Y024930D01*
X031336Y025428D02*
X032970Y025428D01*
X032970Y025927D02*
X030860Y025927D01*
X030771Y026425D02*
X032970Y026425D01*
X032970Y026924D02*
X030270Y026924D01*
X029834Y027422D02*
X032970Y027422D01*
X032970Y027921D02*
X029834Y027921D01*
X029834Y028419D02*
X032970Y028419D01*
X032970Y028918D02*
X029834Y028918D01*
X029834Y029416D02*
X032970Y029416D01*
X032970Y029915D02*
X029934Y029915D01*
X029934Y030413D02*
X032970Y030413D01*
X032970Y030912D02*
X029928Y030912D01*
X029850Y031410D02*
X030988Y031410D01*
X030598Y031909D02*
X029763Y031909D01*
X029357Y032407D02*
X030470Y032407D01*
X030530Y032906D02*
X028777Y032906D01*
X028350Y032000D02*
X024850Y032000D01*
X023834Y030984D01*
X023834Y030394D01*
X023850Y030378D01*
X023850Y029500D01*
X023350Y029000D01*
X017350Y029000D01*
X016866Y029484D01*
X016866Y030394D01*
X017966Y030413D02*
X018134Y030413D01*
X018155Y030912D02*
X017960Y030912D01*
X017751Y031410D02*
X018616Y031410D01*
X018834Y031410D02*
X018834Y031410D01*
X019052Y031410D02*
X021648Y031410D01*
X021866Y031410D02*
X021866Y031410D01*
X022084Y031410D02*
X022928Y031410D01*
X023344Y031909D02*
X003102Y031909D01*
X003084Y031410D02*
X003949Y031410D01*
X003740Y030912D02*
X003545Y030912D01*
X003566Y030413D02*
X003734Y030413D01*
X003734Y029915D02*
X003555Y029915D01*
X003834Y029416D02*
X003179Y029416D01*
X002866Y029416D02*
X002866Y029416D01*
X002866Y029344D02*
X002866Y030394D01*
X002866Y030394D01*
X002166Y030394D01*
X002166Y029998D01*
X002178Y029907D01*
X002201Y029818D01*
X002237Y029733D01*
X002282Y029654D01*
X002338Y029581D01*
X002403Y029516D01*
X002476Y029460D01*
X002555Y029415D01*
X002640Y029379D01*
X002729Y029356D01*
X002820Y029344D01*
X002866Y029344D01*
X002553Y029416D02*
X001100Y029416D01*
X001100Y028918D02*
X003834Y028918D01*
X003834Y028419D02*
X001100Y028419D01*
X001100Y027921D02*
X003834Y027921D01*
X003834Y027422D02*
X001100Y027422D01*
X001100Y026924D02*
X003834Y026924D01*
X003834Y026425D02*
X001100Y026425D01*
X001100Y025927D02*
X002538Y025927D01*
X002092Y025428D02*
X001100Y025428D01*
X001100Y024930D02*
X002006Y024930D01*
X002156Y024431D02*
X001100Y024431D01*
X001100Y023933D02*
X002494Y023933D01*
X002080Y023434D02*
X001100Y023434D01*
X001100Y022936D02*
X002006Y022936D01*
X002170Y022437D02*
X001100Y022437D01*
X001100Y021939D02*
X002877Y021939D01*
X004036Y021939D02*
X007628Y021939D01*
X008366Y023106D02*
X003547Y023106D01*
X003456Y023016D01*
X003456Y024984D02*
X003472Y025000D01*
X004350Y025000D01*
X004834Y025484D01*
X004834Y025500D01*
X004850Y025500D01*
X005350Y025000D01*
X005850Y025000D01*
X006350Y025500D01*
X006350Y027500D01*
X007350Y028500D01*
X007350Y030378D01*
X007366Y030394D01*
X007366Y028484D01*
X008350Y027500D01*
X010350Y027500D01*
X011202Y026924D02*
X012498Y026924D01*
X012014Y027422D02*
X011360Y027422D01*
X011358Y027921D02*
X011515Y027921D01*
X011017Y028419D02*
X010859Y028419D01*
X010850Y028918D02*
X008366Y028918D01*
X008366Y029416D02*
X009021Y029416D01*
X009024Y029415D02*
X009109Y029379D01*
X009197Y029356D01*
X009288Y029344D01*
X009334Y029344D01*
X009334Y030394D01*
X009334Y031444D01*
X009288Y031444D01*
X009197Y031432D01*
X009109Y031408D01*
X009024Y031373D01*
X008945Y031327D01*
X008872Y031271D01*
X008807Y031206D01*
X008751Y031133D01*
X008705Y031054D01*
X008670Y030969D01*
X008646Y030881D01*
X008634Y030790D01*
X008634Y030394D01*
X009334Y030394D01*
X009334Y030394D01*
X009334Y030394D01*
X009334Y031444D01*
X009380Y031444D01*
X009471Y031432D01*
X009560Y031408D01*
X009645Y031373D01*
X009724Y031327D01*
X009797Y031271D01*
X009862Y031206D01*
X009918Y031133D01*
X009963Y031054D01*
X009999Y030969D01*
X010022Y030881D01*
X010034Y030790D01*
X010034Y030394D01*
X009334Y030394D01*
X008634Y030394D01*
X008634Y029998D01*
X008646Y029907D01*
X008670Y029818D01*
X008705Y029733D01*
X008751Y029654D01*
X008807Y029581D01*
X008872Y029516D01*
X008945Y029460D01*
X009024Y029415D01*
X009334Y029416D02*
X009334Y029416D01*
X009334Y029344D02*
X009380Y029344D01*
X009471Y029356D01*
X009560Y029379D01*
X009645Y029415D01*
X009724Y029460D01*
X009797Y029516D01*
X009862Y029581D01*
X009918Y029654D01*
X009963Y029733D01*
X009999Y029818D01*
X010022Y029907D01*
X010034Y029998D01*
X010034Y030394D01*
X009334Y030394D01*
X009334Y030394D01*
X009334Y030394D01*
X009334Y029344D01*
X009647Y029416D02*
X010850Y029416D01*
X010766Y029915D02*
X010023Y029915D01*
X010034Y030413D02*
X010766Y030413D01*
X010772Y030912D02*
X010014Y030912D01*
X009552Y031410D02*
X010980Y031410D01*
X011866Y030394D02*
X011850Y030378D01*
X011850Y029000D01*
X013350Y027500D01*
X014360Y027422D02*
X014514Y027422D01*
X014202Y026924D02*
X023850Y026924D01*
X024850Y027500D02*
X024350Y028000D01*
X015350Y028000D01*
X013834Y029516D01*
X013834Y030394D01*
X014934Y030413D02*
X015766Y030413D01*
X015766Y029915D02*
X014934Y029915D01*
X015348Y029416D02*
X015866Y029416D01*
X015772Y030912D02*
X014928Y030912D01*
X014720Y031410D02*
X015980Y031410D01*
X018834Y030912D02*
X018834Y030912D01*
X018834Y030413D02*
X018834Y030413D01*
X019534Y030413D02*
X021166Y030413D01*
X021186Y030912D02*
X019514Y030912D01*
X021866Y030912D02*
X021866Y030912D01*
X021866Y030413D02*
X021866Y030413D01*
X021866Y030394D02*
X021866Y030394D01*
X022566Y030413D02*
X022734Y030413D01*
X022740Y030912D02*
X022545Y030912D01*
X023843Y032407D02*
X003230Y032407D01*
X003170Y032906D02*
X024423Y032906D01*
X026866Y030394D02*
X026850Y030378D01*
X026850Y029500D01*
X024850Y027500D01*
X024850Y026000D01*
X025850Y025000D01*
X026850Y025000D01*
X027719Y024486D02*
X027698Y024434D01*
X027678Y024413D01*
X027658Y024380D01*
X027470Y024192D01*
X027437Y024172D01*
X027436Y024171D01*
X027445Y024143D01*
X027460Y024048D01*
X027460Y024000D01*
X027049Y024000D01*
X027049Y024000D01*
X027460Y024000D01*
X027460Y023952D01*
X027445Y023857D01*
X027436Y023829D01*
X027437Y023828D01*
X027470Y023808D01*
X027658Y023620D01*
X027678Y023587D01*
X027698Y023566D01*
X027719Y023514D01*
X027791Y023390D01*
X027828Y023251D01*
X027850Y023199D01*
X027850Y023170D01*
X027860Y023133D01*
X027860Y022867D01*
X027850Y022830D01*
X027850Y022801D01*
X027828Y022749D01*
X027791Y022610D01*
X027719Y022486D01*
X027698Y022434D01*
X027678Y022413D01*
X027658Y022380D01*
X027470Y022192D01*
X027437Y022172D01*
X027350Y022086D01*
X027350Y018839D01*
X027369Y018909D01*
X027513Y019160D01*
X027718Y019364D01*
X027969Y019509D01*
X028249Y019584D01*
X028738Y019584D01*
X028503Y019820D01*
X028350Y019820D01*
X028350Y019973D01*
X028350Y019973D01*
X028350Y019820D01*
X028068Y019820D01*
X027670Y020218D01*
X027670Y020500D01*
X028270Y020500D01*
X028270Y020500D01*
X027670Y020500D01*
X027670Y020782D01*
X028068Y021180D01*
X028350Y021180D01*
X028350Y021027D01*
X028350Y021180D01*
X028503Y021180D01*
X028903Y021580D01*
X029797Y021580D01*
X029850Y021527D01*
X029850Y021990D01*
X029717Y021990D01*
X029460Y022059D01*
X029230Y022192D01*
X029042Y022380D01*
X028909Y022610D01*
X028840Y022867D01*
X028840Y023129D01*
X028784Y023152D01*
X028268Y023668D01*
X027986Y023949D01*
X027834Y024317D01*
X027834Y024763D01*
X027828Y024749D01*
X027791Y024610D01*
X027719Y024486D01*
X027695Y024431D02*
X027834Y024431D01*
X028003Y023933D02*
X027457Y023933D01*
X027049Y024000D02*
X027049Y024000D01*
X027020Y024000D01*
X027020Y024000D01*
X027049Y024000D01*
X027766Y023434D02*
X028502Y023434D01*
X028840Y022936D02*
X027860Y022936D01*
X027699Y022437D02*
X029009Y022437D01*
X029850Y021939D02*
X027350Y021939D01*
X027350Y021440D02*
X028763Y021440D01*
X028350Y021027D02*
X028350Y021027D01*
X027830Y020942D02*
X027350Y020942D01*
X027350Y020443D02*
X027670Y020443D01*
X027944Y019945D02*
X027350Y019945D01*
X027350Y019446D02*
X027860Y019446D01*
X027391Y018948D02*
X027350Y018948D01*
X027350Y017951D02*
X027432Y017951D01*
X027350Y017452D02*
X027996Y017452D01*
X027847Y016954D02*
X027350Y016954D01*
X027694Y016516D02*
X027694Y016470D01*
X027706Y016379D01*
X027729Y016290D01*
X027765Y016205D01*
X027810Y016126D01*
X027866Y016053D01*
X027931Y015988D01*
X028004Y015932D01*
X028083Y015887D01*
X028168Y015851D01*
X028257Y015828D01*
X028348Y015816D01*
X028744Y015816D01*
X028744Y016516D01*
X028744Y016516D01*
X028744Y016516D01*
X027694Y016516D01*
X027696Y016455D02*
X027350Y016455D01*
X027350Y015957D02*
X027973Y015957D01*
X028744Y015957D02*
X028744Y015957D01*
X028744Y016455D02*
X028744Y016455D01*
X028744Y016954D02*
X028744Y016954D01*
X028744Y018484D02*
X028759Y018500D01*
X029850Y018500D01*
X030850Y019500D01*
X030850Y020000D01*
X030350Y020500D01*
X030850Y021000D01*
X030850Y024500D01*
X030350Y025000D01*
X029850Y025000D01*
X029850Y024000D02*
X029350Y024000D01*
X028834Y024516D01*
X028834Y030394D01*
X028850Y030409D01*
X028850Y031500D01*
X028350Y032000D01*
X032712Y031410D02*
X032970Y031410D01*
X026243Y023933D02*
X025626Y023933D01*
X025423Y023434D02*
X025870Y023434D01*
X025448Y022936D02*
X025038Y022936D01*
X025350Y022437D02*
X024184Y022437D01*
X024467Y021939D02*
X025350Y021939D01*
X025350Y021440D02*
X024543Y021440D01*
X024405Y020942D02*
X025350Y020942D01*
X025350Y020443D02*
X023905Y020443D01*
X024471Y019945D02*
X025350Y019945D01*
X025350Y019446D02*
X025147Y019446D01*
X023350Y021500D02*
X020350Y021500D01*
X019334Y022516D01*
X019334Y023106D01*
X019350Y023122D01*
X019350Y024500D01*
X018850Y025000D01*
X015350Y025000D01*
X014850Y024500D01*
X014834Y024500D01*
X014834Y023106D01*
X013734Y022936D02*
X013566Y022936D01*
X013490Y022437D02*
X013781Y022437D01*
X014096Y021939D02*
X011072Y021939D01*
X011388Y022437D02*
X012242Y022437D01*
X012166Y022936D02*
X011434Y022936D01*
X011434Y023434D02*
X012166Y023434D01*
X012352Y023933D02*
X011350Y023933D01*
X010350Y024500D02*
X010850Y025000D01*
X014350Y025000D01*
X014834Y024516D01*
X014834Y024500D01*
X013834Y023933D02*
X013379Y023933D01*
X013566Y023434D02*
X013734Y023434D01*
X012866Y022936D02*
X012866Y022936D01*
X012866Y022437D02*
X012866Y022437D01*
X010350Y023122D02*
X010350Y024500D01*
X009446Y024930D02*
X007194Y024930D01*
X006695Y024431D02*
X007854Y024431D01*
X008877Y024431D02*
X009350Y024431D01*
X009864Y025428D02*
X007350Y025428D01*
X007350Y025927D02*
X010474Y025927D01*
X010350Y023122D02*
X010334Y023106D01*
X009596Y021939D02*
X009104Y021939D01*
X004810Y019446D02*
X021553Y019446D01*
X021220Y018948D02*
X004906Y018948D01*
X004767Y018449D02*
X021047Y018449D01*
X021000Y017951D02*
X004387Y017951D01*
X004825Y017452D02*
X021070Y017452D01*
X021268Y016954D02*
X019807Y016954D01*
X020316Y016455D02*
X021637Y016455D01*
X022434Y015957D02*
X020434Y015957D01*
X020434Y015458D02*
X022238Y015458D01*
X021895Y014960D02*
X020394Y014960D01*
X019350Y015591D02*
X019350Y014000D01*
X018850Y013500D01*
X015350Y013500D01*
X014850Y014000D01*
X014834Y014000D01*
X014834Y015606D01*
X013734Y015458D02*
X013566Y015458D01*
X013566Y015606D02*
X012866Y015606D01*
X012866Y015606D01*
X012866Y014556D01*
X012912Y014556D01*
X013003Y014568D01*
X013091Y014592D01*
X013176Y014627D01*
X013255Y014673D01*
X013328Y014729D01*
X013393Y014794D01*
X013449Y014867D01*
X013495Y014946D01*
X013530Y015031D01*
X013554Y015119D01*
X013566Y015210D01*
X013566Y015606D01*
X013566Y016002D01*
X013554Y016093D01*
X013530Y016182D01*
X013495Y016267D01*
X013449Y016346D01*
X013393Y016419D01*
X013328Y016484D01*
X013255Y016540D01*
X013176Y016585D01*
X013091Y016621D01*
X013003Y016644D01*
X012912Y016656D01*
X012866Y016656D01*
X012866Y015606D01*
X012866Y015606D01*
X012866Y014556D01*
X012820Y014556D01*
X012729Y014568D01*
X012640Y014592D01*
X012555Y014627D01*
X012476Y014673D01*
X012403Y014729D01*
X012338Y014794D01*
X012282Y014867D01*
X012237Y014946D01*
X012201Y015031D01*
X012178Y015119D01*
X012166Y015210D01*
X012166Y015606D01*
X012866Y015606D01*
X013566Y015606D01*
X013566Y015957D02*
X013734Y015957D01*
X013852Y016455D02*
X013357Y016455D01*
X012866Y016455D02*
X012866Y016455D01*
X012866Y016656D02*
X012820Y016656D01*
X012729Y016644D01*
X012640Y016621D01*
X012555Y016585D01*
X012476Y016540D01*
X012403Y016484D01*
X012338Y016419D01*
X012282Y016346D01*
X012237Y016267D01*
X012201Y016182D01*
X012178Y016093D01*
X012166Y016002D01*
X012166Y015606D01*
X012866Y015606D01*
X012866Y015606D01*
X012866Y015606D01*
X012866Y016656D01*
X012375Y016455D02*
X011316Y016455D01*
X011434Y015957D02*
X012166Y015957D01*
X012166Y015458D02*
X011434Y015458D01*
X011394Y014960D02*
X012231Y014960D01*
X012866Y014960D02*
X012866Y014960D01*
X012866Y015458D02*
X012866Y015458D01*
X012866Y015957D02*
X012866Y015957D01*
X013500Y014960D02*
X013775Y014960D01*
X014834Y014000D02*
X014834Y013984D01*
X014350Y013500D01*
X011350Y013500D01*
X010350Y014500D01*
X010350Y015591D01*
X010334Y015606D01*
X009352Y016455D02*
X009348Y016455D01*
X008839Y016954D02*
X009861Y016954D01*
X010807Y016954D02*
X014361Y016954D01*
X015307Y016954D02*
X018861Y016954D01*
X018352Y016455D02*
X017857Y016455D01*
X017828Y016484D02*
X017755Y016540D01*
X017676Y016585D01*
X017591Y016621D01*
X017503Y016644D01*
X017412Y016656D01*
X017366Y016656D01*
X017366Y015606D01*
X017366Y015606D01*
X018066Y015606D01*
X018066Y015210D01*
X018054Y015119D01*
X018030Y015031D01*
X017995Y014946D01*
X017949Y014867D01*
X017893Y014794D01*
X017828Y014729D01*
X017755Y014673D01*
X017676Y014627D01*
X017591Y014592D01*
X017503Y014568D01*
X017412Y014556D01*
X017366Y014556D01*
X017366Y015606D01*
X017366Y015606D01*
X017366Y014556D01*
X017320Y014556D01*
X017229Y014568D01*
X017140Y014592D01*
X017055Y014627D01*
X016976Y014673D01*
X016903Y014729D01*
X016838Y014794D01*
X016782Y014867D01*
X016737Y014946D01*
X016701Y015031D01*
X016678Y015119D01*
X016666Y015210D01*
X016666Y015606D01*
X017366Y015606D01*
X018066Y015606D01*
X018066Y016002D01*
X018054Y016093D01*
X018030Y016182D01*
X017995Y016267D01*
X017949Y016346D01*
X017893Y016419D01*
X017828Y016484D01*
X018066Y015957D02*
X018234Y015957D01*
X018234Y015458D02*
X018066Y015458D01*
X018000Y014960D02*
X018275Y014960D01*
X017366Y014960D02*
X017366Y014960D01*
X017366Y015458D02*
X017366Y015458D01*
X017366Y015606D02*
X017366Y015606D01*
X017366Y015606D01*
X016666Y015606D01*
X016666Y016002D01*
X016678Y016093D01*
X016701Y016182D01*
X016737Y016267D01*
X016782Y016346D01*
X016838Y016419D01*
X016903Y016484D01*
X016976Y016540D01*
X017055Y016585D01*
X017140Y016621D01*
X017229Y016644D01*
X017320Y016656D01*
X017366Y016656D01*
X017366Y015606D01*
X017366Y015957D02*
X017366Y015957D01*
X017366Y016455D02*
X017366Y016455D01*
X016875Y016455D02*
X015816Y016455D01*
X015934Y015957D02*
X016666Y015957D01*
X016666Y015458D02*
X015934Y015458D01*
X015894Y014960D02*
X016731Y014960D01*
X019334Y015606D02*
X019334Y014016D01*
X019350Y014000D01*
X019850Y013500D01*
X021850Y013500D01*
X023350Y015000D01*
X026350Y012000D02*
X026834Y011516D01*
X028744Y011516D01*
X028728Y011500D01*
X026850Y011500D01*
X026350Y011000D01*
X026350Y010000D01*
X026850Y009500D01*
X028350Y009500D01*
X025958Y008978D02*
X025086Y008978D01*
X025443Y009476D02*
X025485Y009476D01*
X026350Y012000D02*
X026350Y022500D01*
X026850Y023000D01*
X029350Y020500D02*
X030350Y020500D01*
X028350Y019945D02*
X028350Y019945D01*
X022795Y020443D02*
X001100Y020443D01*
X001100Y019945D02*
X002517Y019945D01*
X001882Y019446D02*
X001100Y019446D01*
X001100Y018948D02*
X001383Y018948D01*
X001850Y018000D02*
X001850Y015000D01*
X002366Y014484D01*
X002334Y014484D01*
X002350Y014500D01*
X006850Y014500D01*
X007350Y014000D01*
X007350Y011000D01*
X006850Y010500D01*
X006350Y010500D01*
X005350Y010500D01*
X004850Y010000D01*
X004850Y008500D01*
X004350Y008000D01*
X003472Y008000D01*
X003456Y008016D01*
X003441Y008000D01*
X002709Y006984D02*
X001100Y006984D01*
X001100Y007482D02*
X002144Y007482D01*
X002006Y007981D02*
X001100Y007981D01*
X001100Y008479D02*
X002104Y008479D01*
X002572Y008978D02*
X001100Y008978D01*
X001100Y009476D02*
X002625Y009476D01*
X002406Y009975D02*
X001100Y009975D01*
X001100Y010473D02*
X002605Y010473D01*
X003456Y010473D02*
X003456Y010473D01*
X003456Y009975D02*
X003456Y009975D01*
X003456Y009476D02*
X003456Y009476D01*
X004407Y010972D02*
X001100Y010972D01*
X001100Y011470D02*
X005079Y011470D01*
X004334Y012053D02*
X004390Y012126D01*
X004435Y012205D01*
X004471Y012290D01*
X004494Y012379D01*
X004506Y012470D01*
X004506Y012516D01*
X004506Y012562D01*
X004494Y012653D01*
X004471Y012741D01*
X004435Y012826D01*
X004390Y012905D01*
X004334Y012978D01*
X004269Y013043D01*
X004196Y013099D01*
X004117Y013145D01*
X004032Y013180D01*
X003943Y013204D01*
X003852Y013216D01*
X003456Y013216D01*
X003060Y013216D01*
X002969Y013204D01*
X002881Y013180D01*
X002796Y013145D01*
X002717Y013099D01*
X002644Y013043D01*
X002579Y012978D01*
X002523Y012905D01*
X002477Y012826D01*
X002442Y012741D01*
X002418Y012653D01*
X002406Y012562D01*
X002406Y012516D01*
X003456Y012516D01*
X003456Y013216D01*
X003456Y012516D01*
X003456Y012516D01*
X003456Y012516D01*
X002406Y012516D01*
X002406Y012470D01*
X002418Y012379D01*
X002442Y012290D01*
X002477Y012205D01*
X002523Y012126D01*
X002579Y012053D01*
X002644Y011988D01*
X002717Y011932D01*
X002796Y011887D01*
X002881Y011851D01*
X002969Y011828D01*
X003060Y011816D01*
X003456Y011816D01*
X003456Y012516D01*
X003456Y012516D01*
X004506Y012516D01*
X003456Y012516D01*
X003456Y012516D01*
X003456Y011816D01*
X003852Y011816D01*
X003943Y011828D01*
X004032Y011851D01*
X004117Y011887D01*
X004196Y011932D01*
X004269Y011988D01*
X004334Y012053D01*
X004243Y011969D02*
X006350Y011969D01*
X006350Y012467D02*
X004506Y012467D01*
X004344Y012966D02*
X006350Y012966D01*
X006350Y013464D02*
X004239Y013464D01*
X003456Y012966D02*
X003456Y012966D01*
X003456Y012467D02*
X003456Y012467D01*
X003456Y011969D02*
X003456Y011969D01*
X002670Y011969D02*
X001100Y011969D01*
X001100Y012467D02*
X002407Y012467D01*
X002569Y012966D02*
X001100Y012966D01*
X001100Y013464D02*
X002673Y013464D01*
X002366Y014484D02*
X003456Y014484D01*
X004866Y015606D02*
X008366Y015606D01*
X007893Y016954D02*
X004933Y016954D01*
X004866Y015606D02*
X003456Y017016D01*
X001850Y018000D02*
X002850Y019000D01*
X003441Y019000D01*
X003456Y018984D01*
X004343Y019945D02*
X022229Y019945D01*
X019494Y020942D02*
X001100Y020942D01*
X001100Y021440D02*
X018996Y021440D01*
X018497Y021939D02*
X015572Y021939D01*
X015888Y022437D02*
X016742Y022437D01*
X016666Y022936D02*
X015934Y022936D01*
X015934Y023434D02*
X016666Y023434D01*
X016852Y023933D02*
X015834Y023933D01*
X017366Y022936D02*
X017366Y022936D01*
X017366Y022437D02*
X017366Y022437D01*
X017990Y022437D02*
X018281Y022437D01*
X018234Y022936D02*
X018066Y022936D01*
X018066Y023434D02*
X018234Y023434D01*
X018339Y023933D02*
X017879Y023933D01*
X019226Y025927D02*
X021537Y025927D01*
X021210Y025428D02*
X019836Y025428D01*
X020254Y024930D02*
X021043Y024930D01*
X021000Y024431D02*
X020350Y024431D01*
X020350Y023933D02*
X021074Y023933D01*
X021277Y023434D02*
X020434Y023434D01*
X020434Y022936D02*
X021662Y022936D01*
X022188Y026425D02*
X007350Y026425D01*
X007350Y026924D02*
X007512Y026924D01*
X005855Y028419D02*
X005834Y028419D01*
X005834Y028918D02*
X006350Y028918D01*
X006350Y029416D02*
X005834Y029416D01*
X005934Y029915D02*
X006266Y029915D01*
X006266Y030413D02*
X005934Y030413D01*
X005928Y030912D02*
X006272Y030912D01*
X006480Y031410D02*
X005720Y031410D01*
X004834Y030394D02*
X004834Y025500D01*
X002866Y029915D02*
X002866Y029915D01*
X002866Y030413D02*
X002866Y030413D01*
X002866Y030912D02*
X002866Y030912D01*
X002866Y031410D02*
X002866Y031410D01*
X002186Y030912D02*
X001100Y030912D01*
X001100Y030413D02*
X002166Y030413D01*
X002177Y029915D02*
X001100Y029915D01*
X008251Y031410D02*
X009116Y031410D01*
X009334Y031410D02*
X009334Y031410D01*
X009334Y030912D02*
X009334Y030912D01*
X009334Y030413D02*
X009334Y030413D01*
X009334Y029915D02*
X009334Y029915D01*
X008645Y029915D02*
X008466Y029915D01*
X008466Y030413D02*
X008634Y030413D01*
X008655Y030912D02*
X008460Y030912D01*
X012751Y031410D02*
X012949Y031410D01*
X014726Y025927D02*
X014974Y025927D01*
X019334Y015606D02*
X019350Y015591D01*
X018850Y009500D02*
X013350Y009500D01*
X012850Y009000D01*
X012866Y008984D01*
X012866Y008106D01*
X012850Y009000D02*
X012350Y009500D01*
X008850Y009500D01*
X008350Y009000D01*
X008350Y008122D01*
X008366Y008106D01*
X009350Y006500D02*
X007350Y006500D01*
X006350Y007500D01*
X005340Y007482D02*
X005246Y007482D01*
X005438Y006984D02*
X004204Y006984D01*
X002815Y005987D02*
X006449Y005987D01*
X005951Y006485D02*
X001100Y006485D01*
X001100Y013963D02*
X001468Y013963D01*
X009350Y006500D02*
X010350Y007500D01*
X010334Y007516D01*
X010334Y008106D01*
X011434Y007981D02*
X011766Y007981D01*
X011766Y008479D02*
X011434Y008479D01*
X011400Y007482D02*
X011800Y007482D01*
X012083Y006984D02*
X011218Y006984D01*
X018850Y009500D02*
X019350Y009000D01*
X019350Y008122D01*
X019334Y008106D01*
M02*
