%
M48
M72
T01C0.0276
T02C0.0320
T03C0.0400
T04C0.1260
%
T01
X7366Y3350
X7366Y4350
X8366Y5350
X8366Y6350
X9334Y4350
X9334Y3350
X10334Y5350
X10334Y6350
T02
X7350Y5850
X6350Y5850
X5350Y5850
X4350Y5850
X4350Y8850
X5350Y8850
X6350Y8850
X7350Y8850
X7850Y11350
X3850Y11350
T03
X2850Y9350
X2850Y8350
X2850Y7350
X2850Y6350
X2850Y5350
X2850Y4350
X2800Y3350
X2900Y2350
X2800Y1350
T04
X1350Y1350
X10350Y1350
X10350Y12850
X1850Y12850
M30
