G75*
%MOIN*%
%OFA0B0*%
%FSLAX24Y24*%
%IPPOS*%
%LPD*%
%AMOC8*
5,1,8,0,0,1.08239X$1,22.5*
%
%ADD10C,0.0060*%
%ADD11C,0.0080*%
%ADD12R,0.0340X0.0240*%
D10*
X003850Y006200D02*
X003850Y008500D01*
X007850Y008500D01*
X007850Y007750D01*
X007811Y007748D01*
X007772Y007742D01*
X007734Y007733D01*
X007697Y007720D01*
X007661Y007703D01*
X007628Y007683D01*
X007596Y007659D01*
X007567Y007633D01*
X007541Y007604D01*
X007517Y007572D01*
X007497Y007539D01*
X007480Y007503D01*
X007467Y007466D01*
X007458Y007428D01*
X007452Y007389D01*
X007450Y007350D01*
X007452Y007311D01*
X007458Y007272D01*
X007467Y007234D01*
X007480Y007197D01*
X007497Y007161D01*
X007517Y007128D01*
X007541Y007096D01*
X007567Y007067D01*
X007596Y007041D01*
X007628Y007017D01*
X007661Y006997D01*
X007697Y006980D01*
X007734Y006967D01*
X007772Y006958D01*
X007811Y006952D01*
X007850Y006950D01*
X007850Y006200D01*
X003850Y006200D01*
X004700Y010900D02*
X004850Y010900D01*
X004900Y010950D01*
X006800Y010950D01*
X006850Y010900D01*
X007000Y010900D01*
X007017Y010902D01*
X007034Y010906D01*
X007050Y010913D01*
X007064Y010923D01*
X007077Y010936D01*
X007087Y010950D01*
X007094Y010966D01*
X007098Y010983D01*
X007100Y011000D01*
X007100Y011700D01*
X007098Y011717D01*
X007094Y011734D01*
X007087Y011750D01*
X007077Y011764D01*
X007064Y011777D01*
X007050Y011787D01*
X007034Y011794D01*
X007017Y011798D01*
X007000Y011800D01*
X006850Y011800D01*
X006800Y011750D01*
X004900Y011750D01*
X004850Y011800D01*
X004700Y011800D01*
X004683Y011798D01*
X004666Y011794D01*
X004650Y011787D01*
X004636Y011777D01*
X004623Y011764D01*
X004613Y011750D01*
X004606Y011734D01*
X004602Y011717D01*
X004600Y011700D01*
X004600Y011000D01*
X004602Y010983D01*
X004606Y010966D01*
X004613Y010950D01*
X004623Y010936D01*
X004636Y010923D01*
X004650Y010913D01*
X004666Y010906D01*
X004683Y010902D01*
X004700Y010900D01*
D11*
X002350Y001100D02*
X002600Y000850D01*
X003100Y000850D01*
X003350Y001100D01*
X003350Y001600D01*
X003100Y001850D01*
X003350Y002100D01*
X003350Y002600D01*
X003100Y002850D01*
X003350Y003100D01*
X003350Y003600D01*
X003100Y003850D01*
X002600Y003850D01*
X002350Y003600D01*
X002350Y003100D01*
X002600Y002850D01*
X002350Y002600D01*
X002350Y002100D01*
X002600Y001850D01*
X002350Y001600D01*
X002350Y001100D01*
X002600Y003850D02*
X002350Y004100D01*
X002350Y004600D01*
X002600Y004850D01*
X002350Y005100D01*
X002350Y005600D01*
X002600Y005850D01*
X003100Y005850D01*
X003350Y005600D01*
X003350Y005100D01*
X003100Y004850D01*
X003350Y004600D01*
X003350Y004100D01*
X003100Y003850D01*
X002600Y003850D01*
X002600Y005850D02*
X003100Y005850D01*
X003350Y006100D01*
X003350Y006600D01*
X003100Y006850D01*
X003350Y007100D01*
X003350Y007600D01*
X003100Y007850D01*
X002600Y007850D01*
X002350Y007600D01*
X002350Y007100D01*
X002600Y006850D01*
X002350Y006600D01*
X002350Y006100D01*
X002600Y005850D01*
X002600Y007850D02*
X003100Y007850D01*
X003350Y008100D01*
X003350Y008600D01*
X003100Y008850D01*
X003350Y009100D01*
X003350Y009600D01*
X003100Y009850D01*
X002600Y009850D01*
X002350Y009600D01*
X002350Y009100D01*
X002600Y008850D01*
X002350Y008600D01*
X002350Y008100D01*
X002600Y007850D01*
X008350Y004600D02*
X008350Y004100D01*
X008350Y003600D02*
X008350Y003100D01*
X009350Y005100D02*
X009350Y005600D01*
X009350Y006100D02*
X009350Y006600D01*
D12*
X007270Y011350D03*
X004430Y011350D03*
M02*
